<svg width="702" height="426" viewBox="0 0 702 426" fill="none" xmlns="http://www.w3.org/2000/svg">
<g clip-path="url(#clip0_52_9)">
<mask id="mask0_52_9" style="mask-type:luminance" maskUnits="userSpaceOnUse" x="0" y="0" width="702" height="426">
<path d="M702 0H0V426H702V0Z" fill="white"/>
</mask>
<g mask="url(#mask0_52_9)">
<path d="M136.921 33.8413H701.04V34.182H136.921V33.8413Z" fill="white" fill-opacity="0.2"/>
<path d="M0 0H693.479C698.185 0 702 0.228159 702 0.509608V31.3409C702 31.6223 698.185 31.8505 693.479 31.8505H0V0Z" fill="white" fill-opacity="0.15"/>
<g opacity="0.7">
<path d="M673.039 17.8073C673.191 17.803 673.33 17.7467 673.443 17.6256L676.746 14.2605C676.841 14.1653 676.893 14.0442 676.893 13.9015C676.893 13.6159 676.668 13.3867 676.381 13.3867C676.242 13.3867 676.107 13.443 676.007 13.5425L673.043 16.5746L670.071 13.5425C669.971 13.4473 669.84 13.3867 669.697 13.3867C669.41 13.3867 669.184 13.6159 669.184 13.9015C669.184 14.0442 669.236 14.1653 669.332 14.2605L672.639 17.6256C672.756 17.7467 672.887 17.8073 673.039 17.8073Z" fill="white"/>
<path d="M635.447 16.165H633.548V15.3984H635.447C635.815 15.3984 636.113 15.3398 636.341 15.2227C636.569 15.1055 636.735 14.9427 636.839 14.7344C636.946 14.526 637 14.2884 637 14.0215C637 13.7773 636.946 13.5479 636.839 13.333C636.735 13.1182 636.569 12.9456 636.341 12.8154C636.113 12.682 635.815 12.6152 635.447 12.6152H633.768V18.9531H632.825V11.8438H635.447C635.984 11.8438 636.438 11.9365 636.81 12.1221C637.181 12.3076 637.462 12.5648 637.654 12.8936C637.846 13.2191 637.942 13.5918 637.942 14.0117C637.942 14.4674 637.846 14.8564 637.654 15.1787C637.462 15.501 637.181 15.7467 636.81 15.916C636.438 16.082 635.984 16.165 635.447 16.165ZM642.229 17.7324V13.6699H643.138V18.9531H642.273L642.229 17.7324ZM642.4 16.6191L642.776 16.6094C642.776 16.9609 642.739 17.2865 642.664 17.5859C642.592 17.8822 642.475 18.1393 642.312 18.3574C642.15 18.5755 641.937 18.7464 641.673 18.8701C641.409 18.9906 641.089 19.0508 640.711 19.0508C640.454 19.0508 640.218 19.0133 640.003 18.9385C639.791 18.8636 639.609 18.748 639.456 18.5918C639.303 18.4355 639.184 18.2321 639.1 17.9814C639.018 17.7308 638.978 17.4297 638.978 17.0781V13.6699H639.881V17.0879C639.881 17.3255 639.907 17.5225 639.959 17.6787C640.014 17.8317 640.088 17.9538 640.179 18.0449C640.273 18.1328 640.377 18.1947 640.491 18.2305C640.608 18.2663 640.729 18.2842 640.853 18.2842C641.237 18.2842 641.541 18.2109 641.766 18.0645C641.99 17.9147 642.151 17.7145 642.249 17.4639C642.35 17.21 642.4 16.9284 642.4 16.6191ZM644.51 11.4531H645.418V17.9277L645.34 18.9531H644.51V11.4531ZM648.987 16.2676V16.3701C648.987 16.7542 648.942 17.1107 648.851 17.4395C648.759 17.765 648.626 18.0482 648.45 18.2891C648.274 18.5299 648.06 18.7171 647.806 18.8506C647.552 18.984 647.26 19.0508 646.932 19.0508C646.596 19.0508 646.302 18.9938 646.048 18.8799C645.797 18.7627 645.586 18.5951 645.413 18.377C645.241 18.1589 645.102 17.8952 644.998 17.5859C644.897 17.2767 644.827 16.9284 644.788 16.541V16.0918C644.827 15.7012 644.897 15.3512 644.998 15.042C645.102 14.7327 645.241 14.4691 645.413 14.251C645.586 14.0296 645.797 13.862 646.048 13.748C646.299 13.6309 646.59 13.5723 646.922 13.5723C647.254 13.5723 647.549 13.6374 647.806 13.7676C648.063 13.8945 648.278 14.0768 648.45 14.3145C648.626 14.5521 648.759 14.8369 648.851 15.1689C648.942 15.4977 648.987 15.8639 648.987 16.2676ZM648.079 16.3701V16.2676C648.079 16.0039 648.055 15.7565 648.006 15.5254C647.957 15.291 647.879 15.0859 647.771 14.9102C647.664 14.7311 647.522 14.5911 647.347 14.4902C647.171 14.3861 646.954 14.334 646.697 14.334C646.469 14.334 646.271 14.373 646.102 14.4512C645.936 14.5293 645.794 14.6351 645.677 14.7686C645.56 14.8988 645.464 15.0485 645.389 15.2178C645.317 15.3838 645.263 15.5563 645.228 15.7354V16.9121C645.28 17.14 645.364 17.3597 645.481 17.5713C645.602 17.7796 645.761 17.9505 645.96 18.084C646.162 18.2174 646.411 18.2842 646.707 18.2842C646.951 18.2842 647.16 18.2354 647.332 18.1377C647.508 18.0368 647.649 17.8984 647.757 17.7227C647.868 17.5469 647.949 17.3434 648.001 17.1123C648.053 16.8812 648.079 16.6338 648.079 16.3701ZM651.111 11.4531V18.9531H650.203V11.4531H651.111ZM653.543 13.6699V18.9531H652.635V13.6699H653.543ZM652.566 12.2686C652.566 12.1221 652.61 11.9984 652.698 11.8975C652.789 11.7965 652.923 11.7461 653.099 11.7461C653.271 11.7461 653.403 11.7965 653.494 11.8975C653.589 11.9984 653.636 12.1221 653.636 12.2686C653.636 12.4085 653.589 12.529 653.494 12.6299C653.403 12.7275 653.271 12.7764 653.099 12.7764C652.923 12.7764 652.789 12.7275 652.698 12.6299C652.61 12.529 652.566 12.4085 652.566 12.2686ZM658.069 17.5518C658.069 17.4215 658.04 17.3011 657.981 17.1904C657.926 17.0765 657.811 16.974 657.635 16.8828C657.462 16.7884 657.202 16.707 656.854 16.6387C656.561 16.5768 656.295 16.5036 656.058 16.4189C655.823 16.3343 655.623 16.2318 655.457 16.1113C655.294 15.9909 655.169 15.8493 655.081 15.6865C654.993 15.5238 654.949 15.3333 654.949 15.1152C654.949 14.9069 654.995 14.71 655.086 14.5244C655.18 14.3389 655.312 14.1745 655.481 14.0312C655.654 13.888 655.861 13.7757 656.102 13.6943C656.342 13.613 656.611 13.5723 656.907 13.5723C657.33 13.5723 657.692 13.6471 657.991 13.7969C658.291 13.9466 658.52 14.1468 658.68 14.3975C658.839 14.6449 658.919 14.9199 658.919 15.2227H658.016C658.016 15.0762 657.972 14.9346 657.884 14.7979C657.799 14.6579 657.674 14.5423 657.508 14.4512C657.345 14.36 657.145 14.3145 656.907 14.3145C656.657 14.3145 656.453 14.3535 656.297 14.4316C656.144 14.5065 656.032 14.6025 655.96 14.7197C655.892 14.8369 655.857 14.9606 655.857 15.0908C655.857 15.1885 655.874 15.2764 655.906 15.3545C655.942 15.4294 656.004 15.4993 656.092 15.5645C656.18 15.6263 656.303 15.6849 656.463 15.7402C656.622 15.7956 656.826 15.8509 657.073 15.9062C657.506 16.0039 657.863 16.1211 658.143 16.2578C658.423 16.3945 658.631 16.5622 658.768 16.7607C658.904 16.9593 658.973 17.2002 658.973 17.4834C658.973 17.7145 658.924 17.9261 658.826 18.1182C658.732 18.3102 658.593 18.4762 658.411 18.6162C658.232 18.7529 658.017 18.8604 657.767 18.9385C657.519 19.0133 657.241 19.0508 656.932 19.0508C656.466 19.0508 656.072 18.9678 655.75 18.8018C655.428 18.6357 655.184 18.4209 655.018 18.1572C654.852 17.8936 654.769 17.6152 654.769 17.3223H655.677C655.69 17.5697 655.761 17.7666 655.892 17.9131C656.022 18.0563 656.181 18.1589 656.37 18.2207C656.559 18.2793 656.746 18.3086 656.932 18.3086C657.179 18.3086 657.386 18.276 657.552 18.2109C657.721 18.1458 657.85 18.0563 657.938 17.9424C658.025 17.8285 658.069 17.6982 658.069 17.5518ZM661.062 11.4531V18.9531H660.159V11.4531H661.062ZM660.848 16.1113L660.472 16.0967C660.475 15.7354 660.529 15.4017 660.633 15.0957C660.737 14.7865 660.883 14.5179 661.072 14.29C661.261 14.0622 661.486 13.8864 661.746 13.7627C662.01 13.6357 662.301 13.5723 662.62 13.5723C662.881 13.5723 663.115 13.6081 663.323 13.6797C663.532 13.748 663.709 13.8587 663.855 14.0117C664.005 14.1647 664.119 14.3633 664.197 14.6074C664.275 14.8483 664.314 15.1429 664.314 15.4912V18.9531H663.406V15.4814C663.406 15.2048 663.366 14.9834 663.284 14.8174C663.203 14.6481 663.084 14.526 662.928 14.4512C662.771 14.373 662.579 14.334 662.352 14.334C662.127 14.334 661.922 14.3812 661.736 14.4756C661.554 14.57 661.396 14.7002 661.263 14.8662C661.132 15.0322 661.03 15.2227 660.955 15.4375C660.883 15.6491 660.848 15.8737 660.848 16.1113Z" fill="white"/>
</g>
<g opacity="0.7">
<path d="M580.039 17.8073C580.191 17.803 580.33 17.7467 580.443 17.6256L583.746 14.2605C583.841 14.1653 583.893 14.0442 583.893 13.9015C583.893 13.6159 583.668 13.3867 583.381 13.3867C583.242 13.3867 583.107 13.443 583.007 13.5425L580.043 16.5746L577.071 13.5425C576.971 13.4473 576.84 13.3867 576.697 13.3867C576.41 13.3867 576.184 13.6159 576.184 13.9015C576.184 14.0442 576.236 14.1653 576.332 14.2605L579.639 17.6256C579.756 17.7467 579.887 17.8073 580.039 17.8073Z" fill="white"/>
<path d="M544.342 18.1865V18.9531H540.577V18.1865H544.342ZM540.768 11.8438V18.9531H539.825V11.8438H540.768ZM543.844 14.9004V15.667H540.577V14.9004H543.844ZM544.293 11.8438V12.6152H540.577V11.8438H544.293ZM548.604 17.9277V11.4531H549.513V18.9531H548.683L548.604 17.9277ZM545.05 16.3701V16.2676C545.05 15.8639 545.099 15.4977 545.196 15.1689C545.297 14.8369 545.439 14.5521 545.621 14.3145C545.807 14.0768 546.026 13.8945 546.28 13.7676C546.537 13.6374 546.824 13.5723 547.14 13.5723C547.472 13.5723 547.761 13.6309 548.009 13.748C548.259 13.862 548.471 14.0296 548.644 14.251C548.819 14.4691 548.958 14.7327 549.059 15.042C549.16 15.3512 549.229 15.7012 549.269 16.0918V16.541C549.233 16.9284 549.163 17.2767 549.059 17.5859C548.958 17.8952 548.819 18.1589 548.644 18.377C548.471 18.5951 548.259 18.7627 548.009 18.8799C547.758 18.9938 547.465 19.0508 547.13 19.0508C546.821 19.0508 546.537 18.984 546.28 18.8506C546.026 18.7171 545.807 18.5299 545.621 18.2891C545.439 18.0482 545.297 17.765 545.196 17.4395C545.099 17.1107 545.05 16.7542 545.05 16.3701ZM545.958 16.2676V16.3701C545.958 16.6338 545.984 16.8812 546.036 17.1123C546.091 17.3434 546.176 17.5469 546.29 17.7227C546.404 17.8984 546.549 18.0368 546.725 18.1377C546.9 18.2354 547.11 18.2842 547.354 18.2842C547.654 18.2842 547.9 18.2207 548.092 18.0938C548.287 17.9668 548.443 17.7992 548.561 17.5908C548.678 17.3825 548.769 17.1562 548.834 16.9121V15.7354C548.795 15.5563 548.738 15.3838 548.663 15.2178C548.591 15.0485 548.497 14.8988 548.38 14.7686C548.266 14.6351 548.124 14.5293 547.955 14.4512C547.789 14.373 547.592 14.334 547.364 14.334C547.117 14.334 546.904 14.3861 546.725 14.4902C546.549 14.5911 546.404 14.7311 546.29 14.9102C546.176 15.0859 546.091 15.291 546.036 15.5254C545.984 15.7565 545.958 16.0039 545.958 16.2676ZM551.9 13.6699V18.9531H550.992V13.6699H551.9ZM550.924 12.2686C550.924 12.1221 550.968 11.9984 551.056 11.8975C551.147 11.7965 551.28 11.7461 551.456 11.7461C551.629 11.7461 551.76 11.7965 551.852 11.8975C551.946 11.9984 551.993 12.1221 551.993 12.2686C551.993 12.4085 551.946 12.529 551.852 12.6299C551.76 12.7275 551.629 12.7764 551.456 12.7764C551.28 12.7764 551.147 12.7275 551.056 12.6299C550.968 12.529 550.924 12.4085 550.924 12.2686ZM555.562 13.6699V14.3633H552.706V13.6699H555.562ZM553.673 12.3857H554.576V17.6445C554.576 17.8236 554.604 17.9587 554.659 18.0498C554.715 18.141 554.786 18.2012 554.874 18.2305C554.962 18.2598 555.056 18.2744 555.157 18.2744C555.232 18.2744 555.31 18.2679 555.392 18.2549C555.476 18.2386 555.54 18.2256 555.582 18.2158L555.587 18.9531C555.515 18.9759 555.421 18.9971 555.304 19.0166C555.19 19.0394 555.051 19.0508 554.889 19.0508C554.667 19.0508 554.464 19.0068 554.278 18.9189C554.093 18.8311 553.945 18.6846 553.834 18.4795C553.727 18.2712 553.673 17.9912 553.673 17.6396V12.3857ZM557.604 13.6699V18.9531H556.695V13.6699H557.604ZM556.627 12.2686C556.627 12.1221 556.671 11.9984 556.759 11.8975C556.85 11.7965 556.983 11.7461 557.159 11.7461C557.332 11.7461 557.464 11.7965 557.555 11.8975C557.649 11.9984 557.696 12.1221 557.696 12.2686C557.696 12.4085 557.649 12.529 557.555 12.6299C557.464 12.7275 557.332 12.7764 557.159 12.7764C556.983 12.7764 556.85 12.7275 556.759 12.6299C556.671 12.529 556.627 12.4085 556.627 12.2686ZM559.957 14.7979V18.9531H559.054V13.6699H559.908L559.957 14.7979ZM559.742 16.1113L559.366 16.0967C559.369 15.7354 559.423 15.4017 559.527 15.0957C559.632 14.7865 559.778 14.5179 559.967 14.29C560.156 14.0622 560.38 13.8864 560.641 13.7627C560.904 13.6357 561.196 13.5723 561.515 13.5723C561.775 13.5723 562.009 13.6081 562.218 13.6797C562.426 13.748 562.604 13.8587 562.75 14.0117C562.9 14.1647 563.014 14.3633 563.092 14.6074C563.17 14.8483 563.209 15.1429 563.209 15.4912V18.9531H562.301V15.4814C562.301 15.2048 562.26 14.9834 562.179 14.8174C562.097 14.6481 561.979 14.526 561.822 14.4512C561.666 14.373 561.474 14.334 561.246 14.334C561.021 14.334 560.816 14.3812 560.631 14.4756C560.449 14.57 560.291 14.7002 560.157 14.8662C560.027 15.0322 559.924 15.2227 559.85 15.4375C559.778 15.6491 559.742 15.8737 559.742 16.1113ZM568.004 13.6699H568.824V18.8408C568.824 19.3063 568.73 19.7035 568.541 20.0322C568.352 20.361 568.089 20.61 567.75 20.7793C567.415 20.9518 567.027 21.0381 566.588 21.0381C566.406 21.0381 566.191 21.0088 565.943 20.9502C565.699 20.8949 565.458 20.7988 565.221 20.6621C564.986 20.5286 564.789 20.348 564.63 20.1201L565.104 19.583C565.325 19.8499 565.556 20.0355 565.797 20.1396C566.041 20.2438 566.282 20.2959 566.52 20.2959C566.806 20.2959 567.053 20.2422 567.262 20.1348C567.47 20.0273 567.631 19.8678 567.745 19.6562C567.862 19.4479 567.921 19.1908 567.921 18.8848V14.832L568.004 13.6699ZM564.366 16.3701V16.2676C564.366 15.8639 564.413 15.4977 564.508 15.1689C564.605 14.8369 564.744 14.5521 564.923 14.3145C565.105 14.0768 565.325 13.8945 565.582 13.7676C565.839 13.6374 566.129 13.5723 566.451 13.5723C566.783 13.5723 567.073 13.6309 567.32 13.748C567.571 13.862 567.783 14.0296 567.955 14.251C568.131 14.4691 568.269 14.7327 568.37 15.042C568.471 15.3512 568.541 15.7012 568.58 16.0918V16.541C568.544 16.9284 568.474 17.2767 568.37 17.5859C568.269 17.8952 568.131 18.1589 567.955 18.377C567.783 18.5951 567.571 18.7627 567.32 18.8799C567.07 18.9938 566.777 19.0508 566.441 19.0508C566.126 19.0508 565.839 18.984 565.582 18.8506C565.328 18.7171 565.11 18.5299 564.928 18.2891C564.745 18.0482 564.605 17.765 564.508 17.4395C564.413 17.1107 564.366 16.7542 564.366 16.3701ZM565.27 16.2676V16.3701C565.27 16.6338 565.296 16.8812 565.348 17.1123C565.403 17.3434 565.486 17.5469 565.597 17.7227C565.711 17.8984 565.855 18.0368 566.031 18.1377C566.207 18.2354 566.417 18.2842 566.661 18.2842C566.961 18.2842 567.208 18.2207 567.403 18.0938C567.599 17.9668 567.753 17.7992 567.867 17.5908C567.984 17.3825 568.076 17.1562 568.141 16.9121V15.7354C568.105 15.5563 568.049 15.3838 567.975 15.2178C567.903 15.0485 567.809 14.8988 567.691 14.7686C567.577 14.6351 567.436 14.5293 567.267 14.4512C567.097 14.373 566.899 14.334 566.671 14.334C566.424 14.334 566.21 14.3861 566.031 14.4902C565.855 14.5911 565.711 14.7311 565.597 14.9102C565.486 15.0859 565.403 15.291 565.348 15.5254C565.296 15.7565 565.27 16.0039 565.27 16.2676Z" fill="white"/>
</g>
<mask id="mask1_52_9" style="mask-type:luminance" maskUnits="userSpaceOnUse" x="522" y="10" width="12" height="13">
<path d="M534 10.0093H522V22.0093H534V10.0093Z" fill="white"/>
</mask>
<g mask="url(#mask1_52_9)">
<g opacity="0.5">
<path d="M523.5 18.6341V20.5091H525.375L530.905 14.9791L529.03 13.1041L523.5 18.6341ZM532.355 13.5291C532.55 13.3341 532.55 13.0191 532.355 12.8241L531.185 11.6541C530.99 11.4591 530.675 11.4591 530.48 11.6541L529.565 12.5691L531.44 14.4441L532.355 13.5291Z" fill="white"/>
</g>
</g>
<mask id="mask2_52_9" style="mask-type:luminance" maskUnits="userSpaceOnUse" x="600" y="8" width="16" height="17">
<path d="M616 8.00928H600V24.0093H616V8.00928Z" fill="white"/>
</mask>
<g mask="url(#mask2_52_9)">
<path d="M608 9.34277C604.32 9.34277 601.333 12.3294 601.333 16.0094C601.333 19.6894 604.32 22.6761 608 22.6761C611.68 22.6761 614.667 19.6894 614.667 16.0094C614.667 12.3294 611.68 9.34277 608 9.34277ZM606.667 19.3428L603.333 16.0094L604.273 15.0694L606.667 17.4561L611.727 12.3961L612.667 13.3428L606.667 19.3428Z" fill="#2AD986"/>
</g>
<path d="M334 9.00928H327C324.791 9.00928 323 10.8001 323 13.0093V19.0093C323 21.2184 324.791 23.0093 327 23.0093H334C336.209 23.0093 338 21.2184 338 19.0093V13.0093C338 10.8001 336.209 9.00928 334 9.00928Z" fill="black" fill-opacity="0.15"/>
<path d="M353 9.00928H346C343.791 9.00928 342 10.8001 342 13.0093V19.0093C342 21.2184 343.791 23.0093 346 23.0093H353C355.209 23.0093 357 21.2184 357 19.0093V13.0093C357 10.8001 355.209 9.00928 353 9.00928Z" fill="black" fill-opacity="0.15"/>
<path d="M372 9.00928H365C362.791 9.00928 361 10.8001 361 13.0093V19.0093C361 21.2184 362.791 23.0093 365 23.0093H372C374.209 23.0093 376 21.2184 376 19.0093V13.0093C376 10.8001 374.209 9.00928 372 9.00928Z" fill="black" fill-opacity="0.15"/>
<path d="M391 9.00928H384C381.791 9.00928 380 10.8001 380 13.0093V19.0093C380 21.2184 381.791 23.0093 384 23.0093H391C393.209 23.0093 395 21.2184 395 19.0093V13.0093C395 10.8001 393.209 9.00928 391 9.00928Z" fill="black" fill-opacity="0.15"/>
<mask id="mask3_52_9" style="mask-type:luminance" maskUnits="userSpaceOnUse" x="307" y="10" width="12" height="13">
<path d="M319 10.0093H307V22.0093H319V10.0093Z" fill="white"/>
</mask>
<g mask="url(#mask3_52_9)">
<g opacity="0.5">
<path d="M313 14.0093C313.55 14.0093 314 13.5593 314 13.0093C314 12.4593 313.55 12.0093 313 12.0093C312.45 12.0093 312 12.4593 312 13.0093C312 13.5593 312.45 14.0093 313 14.0093ZM313 15.0093C312.45 15.0093 312 15.4593 312 16.0093C312 16.5593 312.45 17.0093 313 17.0093C313.55 17.0093 314 16.5593 314 16.0093C314 15.4593 313.55 15.0093 313 15.0093ZM313 18.0093C312.45 18.0093 312 18.4593 312 19.0093C312 19.5593 312.45 20.0093 313 20.0093C313.55 20.0093 314 19.5593 314 19.0093C314 18.4593 313.55 18.0093 313 18.0093Z" fill="white"/>
</g>
</g>
<path d="M80 9.00928H37C34.7909 9.00928 33 10.8001 33 13.0093V19.0093C33 21.2184 34.7909 23.0093 37 23.0093H80C82.2091 23.0093 84 21.2184 84 19.0093V13.0093C84 10.8001 82.2091 9.00928 80 9.00928Z" fill="black" fill-opacity="0.15"/>
<path opacity="0.5" d="M23.5405 17.6747C23.6066 17.4667 24.4174 14.9473 24.4174 14.9473C24.8078 13.9134 25.5646 12.9449 27 12.9449L25.982 15.4197L24.964 17.8945C24.5435 18.8868 23.7628 19.7959 22.3093 19.7959C22.3093 19.7959 21.6907 15.5594 21.6847 15.4643C21.6486 15.5653 20.7778 17.7935 20.7778 17.7935C20.3694 18.8215 19.5886 19.79 18.1411 19.7959L17 12.9449C17.9429 12.9449 19.1081 13.7114 19.1922 14.9711C19.1922 14.9711 19.3363 17.4845 19.3423 17.6806C19.4264 17.4667 20.4114 14.9414 20.4114 14.9414C20.8018 13.9134 21.5405 12.939 22.9219 12.939C22.9219 12.939 23.5165 17.4608 23.5405 17.6747Z" fill="white"/>
<mask id="mask4_52_9" style="mask-type:luminance" maskUnits="userSpaceOnUse" x="90" y="10" width="12" height="13">
<path d="M102 10.0093H90V22.0093H102V10.0093Z" fill="white"/>
</mask>
<g mask="url(#mask4_52_9)">
<path d="M96 12.2593C93.5 12.2593 91.365 13.8143 90.5 16.0093C91.365 18.2043 93.5 19.7593 96 19.7593C98.5 19.7593 100.635 18.2043 101.5 16.0093C100.635 13.8143 98.5 12.2593 96 12.2593ZM96 18.5093C94.62 18.5093 93.5 17.3893 93.5 16.0093C93.5 14.6293 94.62 13.5093 96 13.5093C97.38 13.5093 98.5 14.6293 98.5 16.0093C98.5 17.3893 97.38 18.5093 96 18.5093ZM96 14.5093C95.17 14.5093 94.5 15.1793 94.5 16.0093C94.5 16.8393 95.17 17.5093 96 17.5093C96.83 17.5093 97.5 16.8393 97.5 16.0093C97.5 15.1793 96.83 14.5093 96 14.5093Z" fill="#1D76E1"/>
</g>
<path d="M22 46H15C12.7909 46 11 47.7909 11 50V56C11 58.2091 12.7909 60 15 60H22C24.2091 60 26 58.2091 26 56V50C26 47.7909 24.2091 46 22 46Z" fill="black" fill-opacity="0.15"/>
<path d="M22 64H15C12.7909 64 11 65.7909 11 68V74C11 76.2091 12.7909 78 15 78H22C24.2091 78 26 76.2091 26 74V68C26 65.7909 24.2091 64 22 64Z" fill="black" fill-opacity="0.15"/>
<path d="M22 82H15C12.7909 82 11 83.7909 11 86V92C11 94.2091 12.7909 96 15 96H22C24.2091 96 26 94.2091 26 92V86C26 83.7909 24.2091 82 22 82Z" fill="black" fill-opacity="0.15"/>
<path d="M22 100H15C12.7909 100 11 101.791 11 104V110C11 112.209 12.7909 114 15 114H22C24.2091 114 26 112.209 26 110V104C26 101.791 24.2091 100 22 100Z" fill="black" fill-opacity="0.15"/>
<path d="M22 118H15C12.7909 118 11 119.791 11 122V128C11 130.209 12.7909 132 15 132H22C24.2091 132 26 130.209 26 128V122C26 119.791 24.2091 118 22 118Z" fill="black" fill-opacity="0.15"/>
<path d="M22 136H15C12.7909 136 11 137.791 11 140V146C11 148.209 12.7909 150 15 150H22C24.2091 150 26 148.209 26 146V140C26 137.791 24.2091 136 22 136Z" fill="black" fill-opacity="0.15"/>
<path d="M22 154H15C12.7909 154 11 155.791 11 158V164C11 166.209 12.7909 168 15 168H22C24.2091 168 26 166.209 26 164V158C26 155.791 24.2091 154 22 154Z" fill="black" fill-opacity="0.15"/>
<path d="M22 172H15C12.7909 172 11 173.791 11 176V182C11 184.209 12.7909 186 15 186H22C24.2091 186 26 184.209 26 182V176C26 173.791 24.2091 172 22 172Z" fill="black" fill-opacity="0.15"/>
<path d="M22 190H15C12.7909 190 11 191.791 11 194V200C11 202.209 12.7909 204 15 204H22C24.2091 204 26 202.209 26 200V194C26 191.791 24.2091 190 22 190Z" fill="black" fill-opacity="0.15"/>
<path d="M22 208H15C12.7909 208 11 209.791 11 212V219C11 221.209 12.7909 223 15 223H22C24.2091 223 26 221.209 26 219V212C26 209.791 24.2091 208 22 208Z" fill="black" fill-opacity="0.15"/>
<path d="M22 326H15C12.7909 326 11 327.791 11 330V336C11 338.209 12.7909 340 15 340H22C24.2091 340 26 338.209 26 336V330C26 327.791 24.2091 326 22 326Z" fill="black" fill-opacity="0.15"/>
<path d="M22 344H15C12.7909 344 11 345.791 11 348V354C11 356.209 12.7909 358 15 358H22C24.2091 358 26 356.209 26 354V348C26 345.791 24.2091 344 22 344Z" fill="black" fill-opacity="0.15"/>
<path d="M22 362H15C12.7909 362 11 363.791 11 366V372C11 374.209 12.7909 376 15 376H22C24.2091 376 26 374.209 26 372V366C26 363.791 24.2091 362 22 362Z" fill="black" fill-opacity="0.15"/>
<path d="M22 380H15C12.7909 380 11 381.791 11 384V390C11 392.209 12.7909 394 15 394H22C24.2091 394 26 392.209 26 390V384C26 381.791 24.2091 380 22 380Z" fill="black" fill-opacity="0.15"/>
<path d="M22 398H15C12.7909 398 11 399.791 11 402V409C11 411.209 12.7909 413 15 413H22C24.2091 413 26 411.209 26 409V402C26 399.791 24.2091 398 22 398Z" fill="black" fill-opacity="0.15"/>
<path opacity="0.1" d="M33.5 32V426" stroke="white"/>
<path opacity="0.1" d="M42.5 71V130" stroke="white"/>
<path opacity="0.1" d="M49.5 73V130" stroke="white"/>
<path opacity="0.1" d="M58.5 91V131" stroke="white"/>
<path opacity="0.1" d="M66.5 109V131" stroke="white"/>
<path opacity="0.3" d="M92.5 37H43.5C42.6716 37 42 37.6716 42 38.5C42 39.3284 42.6716 40 43.5 40H92.5C93.3284 40 94 39.3284 94 38.5C94 37.6716 93.3284 37 92.5 37Z" fill="white"/>
<path opacity="0.3" d="M122.5 46H43.5C42.6716 46 42 46.6716 42 47.5C42 48.3284 42.6716 49 43.5 49H122.5C123.328 49 124 48.3284 124 47.5C124 46.6716 123.328 46 122.5 46Z" fill="white"/>
<path opacity="0.3" d="M101.5 55H43.5C42.6716 55 42 55.6716 42 56.5C42 57.3284 42.6716 58 43.5 58H101.5C102.328 58 103 57.3284 103 56.5C103 55.6716 102.328 55 101.5 55Z" fill="white"/>
<path opacity="0.3" d="M111.5 64H43.5C42.6716 64 42 64.6716 42 65.5C42 66.3284 42.6716 67 43.5 67H111.5C112.328 67 113 66.3284 113 65.5C113 64.6716 112.328 64 111.5 64Z" fill="white"/>
<path opacity="0.3" d="M103.5 73H53.5C52.6716 73 52 73.6716 52 74.5C52 75.3284 52.6716 76 53.5 76H103.5C104.328 76 105 75.3284 105 74.5C105 73.6716 104.328 73 103.5 73Z" fill="white"/>
<path opacity="0.3" d="M92.5 82H53.5C52.6716 82 52 82.6716 52 83.5C52 84.3284 52.6716 85 53.5 85H92.5C93.3284 85 94 84.3284 94 83.5C94 82.6716 93.3284 82 92.5 82Z" fill="white"/>
<path opacity="0.3" d="M102.5 91H63.5C62.6716 91 62 91.6716 62 92.5C62 93.3284 62.6716 94 63.5 94H102.5C103.328 94 104 93.3284 104 92.5C104 91.6716 103.328 91 102.5 91Z" fill="white"/>
<path opacity="0.3" d="M89.5 100H63.5C62.6716 100 62 100.672 62 101.5C62 102.328 62.6716 103 63.5 103H89.5C90.3284 103 91 102.328 91 101.5C91 100.672 90.3284 100 89.5 100Z" fill="white"/>
<path opacity="0.3" d="M117.5 109H73.5C72.6716 109 72 109.672 72 110.5C72 111.328 72.6716 112 73.5 112H117.5C118.328 112 119 111.328 119 110.5C119 109.672 118.328 109 117.5 109Z" fill="white"/>
<path opacity="0.3" d="M104.5 118H73.5C72.6716 118 72 118.672 72 119.5C72 120.328 72.6716 121 73.5 121H104.5C105.328 121 106 120.328 106 119.5C106 118.672 105.328 118 104.5 118Z" fill="white"/>
<path opacity="0.3" d="M111.5 127H73.5C72.6716 127 72 127.672 72 128.5C72 129.328 72.6716 130 73.5 130H111.5C112.328 130 113 129.328 113 128.5C113 127.672 112.328 127 111.5 127Z" fill="white"/>
<path d="M576 32H138V426H576V32Z" fill="white" fill-opacity="0.15"/>
<path d="M698 40H588C585.791 40 584 41.7909 584 44V49C584 51.2091 585.791 53 588 53H698C700.209 53 702 51.2091 702 49V44C702 41.7909 700.209 40 698 40Z" fill="black" fill-opacity="0.15"/>
<path d="M698 62H588C585.791 62 584 63.7909 584 66V115C584 117.209 585.791 119 588 119H698C700.209 119 702 117.209 702 115V66C702 63.7909 700.209 62 698 62Z" fill="black" fill-opacity="0.15"/>
<path d="M698 128H588C585.791 128 584 129.791 584 132V161C584 163.209 585.791 165 588 165H698C700.209 165 702 163.209 702 161V132C702 129.791 700.209 128 698 128Z" fill="black" fill-opacity="0.15"/>
<path d="M698 174H588C585.791 174 584 175.791 584 178V259C584 261.209 585.791 263 588 263H698C700.209 263 702 261.209 702 259V178C702 175.791 700.209 174 698 174Z" fill="black" fill-opacity="0.15"/>
<path d="M698 272H588C585.791 272 584 273.791 584 276V304C584 306.209 585.791 308 588 308H698C700.209 308 702 306.209 702 304V276C702 273.791 700.209 272 698 272Z" fill="black" fill-opacity="0.15"/>
<path d="M698 317H588C585.791 317 584 318.791 584 321V375C584 377.209 585.791 379 588 379H698C700.209 379 702 377.209 702 375V321C702 318.791 700.209 317 698 317Z" fill="black" fill-opacity="0.15"/>
<path d="M698 388H588C585.791 388 584 389.791 584 392V423C584 425.209 585.791 427 588 427H698C700.209 427 702 425.209 702 423V392C702 389.791 700.209 388 698 388Z" fill="black" fill-opacity="0.15"/>
<circle cx="224" cy="179" r="23.5" fill="#2AD986" fill-opacity="0.35" stroke="#2AD986" stroke-width="3"/>
<path d="M251.966 213H196.034C194.911 213 194 214.102 194 215.462V218.538C194 219.898 194.911 221 196.034 221H251.966C253.089 221 254 219.898 254 218.538V215.462C254 214.102 253.089 213 251.966 213Z" fill="black" fill-opacity="0.15"/>
<path d="M216.278 184.559C217.099 184.559 217.781 184.462 218.326 184.269C218.877 184.069 219.319 183.791 219.653 183.434C220.058 182.994 220.33 182.522 220.471 182.019C220.611 181.515 220.696 180.993 220.726 180.454V180.437C220.585 180.612 220.424 180.779 220.242 180.938C220.061 181.09 219.855 181.225 219.627 181.342C219.398 181.459 219.144 181.553 218.862 181.623C218.587 181.688 218.285 181.72 217.957 181.72C217.324 181.72 216.776 181.597 216.313 181.351C215.856 181.099 215.479 180.771 215.18 180.366C214.881 179.962 214.661 179.505 214.521 178.995C214.38 178.485 214.31 177.973 214.31 177.457C214.31 176.854 214.392 176.285 214.556 175.752C214.726 175.213 214.978 174.741 215.312 174.337C215.64 173.938 216.05 173.622 216.542 173.388C217.04 173.147 217.617 173.027 218.273 173.027C218.93 173.027 219.498 173.15 219.979 173.396C220.465 173.637 220.872 173.956 221.2 174.354C221.587 174.823 221.877 175.409 222.07 176.112C222.264 176.81 222.36 177.507 222.36 178.204V178.793C222.36 179.783 222.255 180.779 222.044 181.781C221.833 182.777 221.382 183.662 220.69 184.436C220.274 184.904 219.697 185.285 218.959 185.578C218.227 185.865 217.333 186.009 216.278 186.009H216.111V184.559H216.278ZM218.221 180.375C218.496 180.375 218.763 180.331 219.021 180.243C219.284 180.149 219.527 180.018 219.75 179.848C219.967 179.684 220.16 179.49 220.33 179.268C220.506 179.039 220.644 178.787 220.743 178.512V177.984C220.743 177.416 220.676 176.909 220.541 176.464C220.412 176.019 220.236 175.641 220.014 175.33C219.785 175.025 219.521 174.791 219.223 174.627C218.93 174.463 218.616 174.381 218.282 174.381C217.901 174.381 217.564 174.457 217.271 174.609C216.979 174.762 216.732 174.97 216.533 175.233C216.328 175.503 216.173 175.822 216.067 176.191C215.962 176.555 215.909 176.947 215.909 177.369C215.909 177.744 215.956 178.113 216.05 178.477C216.144 178.834 216.287 179.153 216.48 179.435C216.668 179.716 216.905 179.944 217.192 180.12C217.485 180.29 217.828 180.375 218.221 180.375ZM233.215 176.543C233.209 176.971 233.127 177.372 232.969 177.747C232.811 178.116 232.591 178.441 232.31 178.723C232.175 178.857 232.025 178.983 231.861 179.101C231.697 179.218 231.521 179.323 231.334 179.417C231.662 179.558 231.958 179.733 232.222 179.944C232.491 180.149 232.723 180.387 232.916 180.656C233.104 180.926 233.247 181.219 233.347 181.535C233.452 181.852 233.505 182.188 233.505 182.546C233.505 183.126 233.396 183.642 233.18 184.093C232.969 184.544 232.682 184.922 232.318 185.227C231.949 185.537 231.519 185.774 231.026 185.938C230.534 186.097 230.007 186.176 229.444 186.176C228.87 186.176 228.334 186.097 227.836 185.938C227.344 185.78 226.916 185.546 226.553 185.235C226.184 184.931 225.894 184.553 225.683 184.102C225.472 183.65 225.366 183.132 225.366 182.546C225.366 182.188 225.416 181.852 225.516 181.535C225.615 181.213 225.759 180.917 225.946 180.647C226.134 180.384 226.359 180.146 226.623 179.936C226.887 179.725 227.183 179.549 227.511 179.408C227.229 179.268 226.975 179.101 226.746 178.907C226.518 178.708 226.324 178.485 226.166 178.239C226.008 177.999 225.885 177.735 225.797 177.448C225.709 177.161 225.665 176.859 225.665 176.543C225.665 175.986 225.759 175.491 225.946 175.058C226.134 174.618 226.395 174.249 226.729 173.95C227.057 173.651 227.449 173.423 227.906 173.265C228.369 173.106 228.873 173.027 229.418 173.027C229.957 173.027 230.458 173.106 230.921 173.265C231.384 173.423 231.785 173.651 232.125 173.95C232.465 174.249 232.731 174.618 232.925 175.058C233.118 175.491 233.215 175.986 233.215 176.543ZM231.879 182.511C231.879 182.153 231.817 181.825 231.694 181.526C231.577 181.228 231.41 180.97 231.193 180.753C230.977 180.542 230.716 180.378 230.411 180.261C230.112 180.144 229.784 180.085 229.427 180.085C229.058 180.085 228.724 180.144 228.425 180.261C228.126 180.378 227.871 180.542 227.66 180.753C227.449 180.97 227.285 181.228 227.168 181.526C227.057 181.825 227.001 182.153 227.001 182.511C227.001 182.88 227.057 183.211 227.168 183.504C227.285 183.791 227.449 184.034 227.66 184.233C227.871 184.433 228.126 184.585 228.425 184.69C228.729 184.796 229.069 184.849 229.444 184.849C229.802 184.849 230.13 184.796 230.429 184.69C230.728 184.585 230.985 184.433 231.202 184.233C231.413 184.034 231.577 183.791 231.694 183.504C231.817 183.211 231.879 182.88 231.879 182.511ZM231.58 176.569C231.58 176.247 231.524 175.951 231.413 175.682C231.308 175.412 231.161 175.178 230.974 174.979C230.78 174.785 230.552 174.636 230.288 174.53C230.024 174.419 229.734 174.363 229.418 174.363C229.102 174.363 228.814 174.416 228.557 174.521C228.299 174.621 228.076 174.768 227.889 174.961C227.701 175.154 227.555 175.389 227.449 175.664C227.35 175.934 227.3 176.235 227.3 176.569C227.3 176.903 227.35 177.205 227.449 177.475C227.555 177.738 227.704 177.964 227.897 178.151C228.085 178.345 228.308 178.494 228.565 178.6C228.829 178.699 229.119 178.749 229.436 178.749C229.746 178.749 230.033 178.699 230.297 178.6C230.561 178.494 230.789 178.345 230.982 178.151C231.17 177.964 231.316 177.735 231.422 177.466C231.527 177.196 231.58 176.897 231.58 176.569Z" fill="#2AD986"/>
<circle cx="259" cy="74.5" r="12" fill="#2AD986" fill-opacity="0.35" stroke="#2AD986"/>
<path d="M272.983 91.5H245.017C244.455 91.5 244 92.051 244 92.7308V94.2692C244 94.949 244.455 95.5 245.017 95.5H272.983C273.545 95.5 274 94.949 274 94.2692V92.7308C274 92.051 273.545 91.5 272.983 91.5Z" fill="black" fill-opacity="0.15"/>
<path d="M255.139 77.7793C255.549 77.7793 255.891 77.731 256.163 77.6343C256.438 77.5347 256.66 77.3955 256.827 77.2168C257.029 76.9971 257.165 76.7612 257.235 76.5093C257.306 76.2573 257.348 75.9966 257.363 75.7271V75.7183C257.292 75.8062 257.212 75.8896 257.121 75.9688C257.03 76.0449 256.928 76.1123 256.813 76.1709C256.699 76.2295 256.572 76.2764 256.431 76.3115C256.293 76.3438 256.143 76.3599 255.979 76.3599C255.662 76.3599 255.388 76.2983 255.157 76.1753C254.928 76.0493 254.739 75.8853 254.59 75.6831C254.44 75.481 254.331 75.2524 254.26 74.9976C254.19 74.7427 254.155 74.4863 254.155 74.2285C254.155 73.9268 254.196 73.6426 254.278 73.376C254.363 73.1064 254.489 72.8706 254.656 72.6685C254.82 72.4692 255.025 72.311 255.271 72.1938C255.52 72.0737 255.809 72.0137 256.137 72.0137C256.465 72.0137 256.749 72.0752 256.989 72.1982C257.232 72.3184 257.436 72.478 257.6 72.6772C257.793 72.9116 257.938 73.2046 258.035 73.5562C258.132 73.9048 258.18 74.2534 258.18 74.6021V74.8965C258.18 75.3916 258.127 75.8896 258.022 76.3906C257.917 76.8887 257.691 77.3311 257.345 77.7178C257.137 77.9521 256.849 78.1426 256.479 78.2891C256.113 78.4326 255.667 78.5044 255.139 78.5044H255.056V77.7793H255.139ZM256.11 75.6875C256.248 75.6875 256.381 75.6655 256.51 75.6216C256.642 75.5747 256.764 75.5088 256.875 75.4238C256.983 75.3418 257.08 75.2451 257.165 75.1338C257.253 75.0195 257.322 74.8936 257.372 74.7559V74.4922C257.372 74.208 257.338 73.9546 257.271 73.7319C257.206 73.5093 257.118 73.3203 257.007 73.165C256.893 73.0127 256.761 72.8955 256.611 72.8135C256.465 72.7314 256.308 72.6904 256.141 72.6904C255.951 72.6904 255.782 72.7285 255.636 72.8047C255.489 72.8809 255.366 72.9849 255.267 73.1167C255.164 73.2515 255.086 73.4111 255.034 73.5957C254.981 73.7773 254.955 73.9736 254.955 74.1846C254.955 74.3721 254.978 74.5566 255.025 74.7383C255.072 74.917 255.144 75.0767 255.24 75.2173C255.334 75.3579 255.453 75.4722 255.596 75.5601C255.743 75.645 255.914 75.6875 256.11 75.6875ZM263.607 73.7715C263.604 73.9854 263.563 74.186 263.484 74.3735C263.405 74.5581 263.295 74.7207 263.155 74.8613C263.087 74.9287 263.013 74.9917 262.931 75.0503C262.849 75.1089 262.761 75.1616 262.667 75.2085C262.831 75.2788 262.979 75.3667 263.111 75.4722C263.246 75.5747 263.361 75.6934 263.458 75.8281C263.552 75.9629 263.624 76.1094 263.673 76.2676C263.726 76.4258 263.752 76.5942 263.752 76.7729C263.752 77.063 263.698 77.3208 263.59 77.5464C263.484 77.772 263.341 77.9609 263.159 78.1133C262.975 78.2686 262.759 78.3872 262.513 78.4692C262.267 78.5483 262.003 78.5879 261.722 78.5879C261.435 78.5879 261.167 78.5483 260.918 78.4692C260.672 78.3901 260.458 78.2729 260.276 78.1177C260.092 77.9653 259.947 77.7764 259.841 77.5508C259.736 77.3252 259.683 77.0659 259.683 76.7729C259.683 76.5942 259.708 76.4258 259.758 76.2676C259.808 76.1064 259.879 75.9585 259.973 75.8237C260.067 75.6919 260.18 75.5732 260.312 75.4678C260.443 75.3623 260.591 75.2744 260.755 75.2041C260.615 75.1338 260.487 75.0503 260.373 74.9536C260.259 74.854 260.162 74.7427 260.083 74.6196C260.004 74.4995 259.942 74.3677 259.898 74.2241C259.854 74.0806 259.833 73.9297 259.833 73.7715C259.833 73.4932 259.879 73.2456 259.973 73.0288C260.067 72.8091 260.197 72.6245 260.364 72.4751C260.528 72.3257 260.725 72.2114 260.953 72.1323C261.185 72.0532 261.437 72.0137 261.709 72.0137C261.979 72.0137 262.229 72.0532 262.46 72.1323C262.692 72.2114 262.893 72.3257 263.062 72.4751C263.232 72.6245 263.366 72.8091 263.462 73.0288C263.559 73.2456 263.607 73.4932 263.607 73.7715ZM262.939 76.7554C262.939 76.5767 262.909 76.4126 262.847 76.2632C262.789 76.1138 262.705 75.9849 262.597 75.8765C262.488 75.771 262.358 75.689 262.206 75.6304C262.056 75.5718 261.892 75.5425 261.713 75.5425C261.529 75.5425 261.362 75.5718 261.212 75.6304C261.063 75.689 260.936 75.771 260.83 75.8765C260.725 75.9849 260.643 76.1138 260.584 76.2632C260.528 76.4126 260.5 76.5767 260.5 76.7554C260.5 76.9399 260.528 77.1055 260.584 77.252C260.643 77.3955 260.725 77.5171 260.83 77.6167C260.936 77.7163 261.063 77.7925 261.212 77.8452C261.365 77.8979 261.535 77.9243 261.722 77.9243C261.901 77.9243 262.065 77.8979 262.214 77.8452C262.364 77.7925 262.493 77.7163 262.601 77.6167C262.707 77.5171 262.789 77.3955 262.847 77.252C262.909 77.1055 262.939 76.9399 262.939 76.7554ZM262.79 73.7847C262.79 73.6235 262.762 73.4756 262.707 73.3408C262.654 73.2061 262.581 73.0889 262.487 72.9893C262.39 72.8926 262.276 72.8179 262.144 72.7651C262.012 72.7095 261.867 72.6816 261.709 72.6816C261.551 72.6816 261.407 72.708 261.278 72.7607C261.149 72.8105 261.038 72.8838 260.944 72.9805C260.851 73.0771 260.777 73.1943 260.725 73.332C260.675 73.4668 260.65 73.6177 260.65 73.7847C260.65 73.9517 260.675 74.1025 260.725 74.2373C260.777 74.3691 260.852 74.4819 260.949 74.5757C261.042 74.6724 261.154 74.7471 261.283 74.7998C261.415 74.8496 261.56 74.8745 261.718 74.8745C261.873 74.8745 262.017 74.8496 262.148 74.7998C262.28 74.7471 262.395 74.6724 262.491 74.5757C262.585 74.4819 262.658 74.3677 262.711 74.2329C262.764 74.0981 262.79 73.9487 262.79 73.7847Z" fill="#2AD986"/>
<circle cx="321" cy="74.5" r="12" fill="#2AD986" fill-opacity="0.35" stroke="#2AD986"/>
<path d="M334.983 91.5H307.017C306.455 91.5 306 92.051 306 92.7308V94.2692C306 94.949 306.455 95.5 307.017 95.5H334.983C335.545 95.5 336 94.949 336 94.2692V92.7308C336 92.051 335.545 91.5 334.983 91.5Z" fill="black" fill-opacity="0.15"/>
<path d="M317.139 77.7793C317.549 77.7793 317.891 77.731 318.163 77.6343C318.438 77.5347 318.66 77.3955 318.827 77.2168C319.029 76.9971 319.165 76.7612 319.235 76.5093C319.306 76.2573 319.348 75.9966 319.363 75.7271V75.7183C319.292 75.8062 319.212 75.8896 319.121 75.9688C319.03 76.0449 318.928 76.1123 318.813 76.1709C318.699 76.2295 318.572 76.2764 318.431 76.3115C318.293 76.3438 318.143 76.3599 317.979 76.3599C317.662 76.3599 317.388 76.2983 317.157 76.1753C316.928 76.0493 316.739 75.8853 316.59 75.6831C316.44 75.481 316.331 75.2524 316.26 74.9976C316.19 74.7427 316.155 74.4863 316.155 74.2285C316.155 73.9268 316.196 73.6426 316.278 73.376C316.363 73.1064 316.489 72.8706 316.656 72.6685C316.82 72.4692 317.025 72.311 317.271 72.1938C317.52 72.0737 317.809 72.0137 318.137 72.0137C318.465 72.0137 318.749 72.0752 318.989 72.1982C319.232 72.3184 319.436 72.478 319.6 72.6772C319.793 72.9116 319.938 73.2046 320.035 73.5562C320.132 73.9048 320.18 74.2534 320.18 74.6021V74.8965C320.18 75.3916 320.127 75.8896 320.022 76.3906C319.917 76.8887 319.691 77.3311 319.345 77.7178C319.137 77.9521 318.849 78.1426 318.479 78.2891C318.113 78.4326 317.667 78.5044 317.139 78.5044H317.056V77.7793H317.139ZM318.11 75.6875C318.248 75.6875 318.381 75.6655 318.51 75.6216C318.642 75.5747 318.764 75.5088 318.875 75.4238C318.983 75.3418 319.08 75.2451 319.165 75.1338C319.253 75.0195 319.322 74.8936 319.372 74.7559V74.4922C319.372 74.208 319.338 73.9546 319.271 73.7319C319.206 73.5093 319.118 73.3203 319.007 73.165C318.893 73.0127 318.761 72.8955 318.611 72.8135C318.465 72.7314 318.308 72.6904 318.141 72.6904C317.951 72.6904 317.782 72.7285 317.636 72.8047C317.489 72.8809 317.366 72.9849 317.267 73.1167C317.164 73.2515 317.086 73.4111 317.034 73.5957C316.981 73.7773 316.955 73.9736 316.955 74.1846C316.955 74.3721 316.978 74.5566 317.025 74.7383C317.072 74.917 317.144 75.0767 317.24 75.2173C317.334 75.3579 317.453 75.4722 317.596 75.5601C317.743 75.645 317.914 75.6875 318.11 75.6875ZM325.722 72.5586L323.072 78.5H322.219L324.86 72.8135H321.397V72.1016H325.722V72.5586Z" fill="#2AD986"/>
<circle cx="382" cy="74.5" r="12" fill="#2AD986" fill-opacity="0.35" stroke="#2AD986"/>
<path d="M395.983 91.5H368.017C367.455 91.5 367 92.051 367 92.7308V94.2692C367 94.949 367.455 95.5 368.017 95.5H395.983C396.545 95.5 397 94.949 397 94.2692V92.7308C397 92.051 396.545 91.5 395.983 91.5Z" fill="black" fill-opacity="0.15"/>
<path d="M377.401 78H376.588V72.6387L374.914 73.2759V72.5332L377.335 71.6016H377.401V78ZM384.187 75.5522C384.187 75.9595 384.14 76.3213 384.046 76.6377C383.952 76.9512 383.817 77.2148 383.642 77.4287C383.466 77.6455 383.25 77.8096 382.996 77.9209C382.741 78.0322 382.449 78.0879 382.121 78.0879C381.796 78.0879 381.504 78.0337 381.247 77.9253C380.989 77.814 380.771 77.6484 380.592 77.4287C380.413 77.2148 380.277 76.9512 380.183 76.6377C380.089 76.3213 380.042 75.9595 380.042 75.5522V74.0537C380.042 73.6465 380.089 73.2861 380.183 72.9727C380.277 72.6562 380.413 72.3896 380.592 72.1729C380.768 71.9561 380.983 71.792 381.238 71.6807C381.496 71.5664 381.787 71.5093 382.112 71.5093C382.44 71.5093 382.732 71.5664 382.987 71.6807C383.245 71.792 383.463 71.9561 383.642 72.1729C383.817 72.3896 383.952 72.6562 384.046 72.9727C384.14 73.2861 384.187 73.6465 384.187 74.0537V75.5522ZM380.86 75.3896L383.352 73.478C383.328 73.2671 383.286 73.0811 383.224 72.9199C383.166 72.7559 383.085 72.6196 382.982 72.5112C382.883 72.3999 382.76 72.3164 382.613 72.2607C382.47 72.2051 382.303 72.1772 382.112 72.1772C381.919 72.1772 381.748 72.208 381.598 72.2695C381.452 72.3281 381.327 72.4146 381.225 72.5288C381.102 72.6724 381.009 72.8584 380.948 73.0869C380.889 73.3125 380.86 73.5747 380.86 73.8735V74.9458C380.86 75.019 380.86 75.0923 380.86 75.1655C380.86 75.2388 380.86 75.3135 380.86 75.3896ZM383.369 75.7236V74.8184C383.369 74.7744 383.369 74.6909 383.369 74.5679C383.369 74.4419 383.369 74.3379 383.369 74.2559L380.882 76.1587C380.908 76.3726 380.955 76.5615 381.022 76.7256C381.09 76.8867 381.178 77.02 381.286 77.1255C381.386 77.2251 381.506 77.3013 381.646 77.354C381.787 77.4038 381.945 77.4287 382.121 77.4287C382.306 77.4287 382.47 77.4009 382.613 77.3452C382.757 77.2896 382.878 77.209 382.978 77.1035C383.113 76.96 383.211 76.7725 383.272 76.541C383.337 76.3096 383.369 76.0371 383.369 75.7236ZM389.592 75.5522C389.592 75.9595 389.545 76.3213 389.451 76.6377C389.357 76.9512 389.223 77.2148 389.047 77.4287C388.871 77.6455 388.656 77.8096 388.401 77.9209C388.146 78.0322 387.854 78.0879 387.526 78.0879C387.201 78.0879 386.91 78.0337 386.652 77.9253C386.394 77.814 386.176 77.6484 385.997 77.4287C385.818 77.2148 385.682 76.9512 385.588 76.6377C385.495 76.3213 385.448 75.9595 385.448 75.5522V74.0537C385.448 73.6465 385.495 73.2861 385.588 72.9727C385.682 72.6562 385.818 72.3896 385.997 72.1729C386.173 71.9561 386.388 71.792 386.643 71.6807C386.901 71.5664 387.192 71.5093 387.518 71.5093C387.846 71.5093 388.137 71.5664 388.392 71.6807C388.65 71.792 388.868 71.9561 389.047 72.1729C389.223 72.3896 389.357 72.6562 389.451 72.9727C389.545 73.2861 389.592 73.6465 389.592 74.0537V75.5522ZM386.265 75.3896L388.757 73.478C388.733 73.2671 388.691 73.0811 388.629 72.9199C388.571 72.7559 388.49 72.6196 388.388 72.5112C388.288 72.3999 388.165 72.3164 388.019 72.2607C387.875 72.2051 387.708 72.1772 387.518 72.1772C387.324 72.1772 387.153 72.208 387.003 72.2695C386.857 72.3281 386.732 72.4146 386.63 72.5288C386.507 72.6724 386.415 72.8584 386.353 73.0869C386.294 73.3125 386.265 73.5747 386.265 73.8735V74.9458C386.265 75.019 386.265 75.0923 386.265 75.1655C386.265 75.2388 386.265 75.3135 386.265 75.3896ZM388.774 75.7236V74.8184C388.774 74.7744 388.774 74.6909 388.774 74.5679C388.774 74.4419 388.774 74.3379 388.774 74.2559L386.287 76.1587C386.313 76.3726 386.36 76.5615 386.428 76.7256C386.495 76.8867 386.583 77.02 386.691 77.1255C386.791 77.2251 386.911 77.3013 387.052 77.354C387.192 77.4038 387.351 77.4287 387.526 77.4287C387.711 77.4287 387.875 77.4009 388.019 77.3452C388.162 77.2896 388.284 77.209 388.383 77.1035C388.518 76.96 388.616 76.7725 388.678 76.541C388.742 76.3096 388.774 76.0371 388.774 75.7236Z" fill="#2AD986"/>
<circle cx="444" cy="74.5" r="12" fill="#2AD986" fill-opacity="0.35" stroke="#2AD986"/>
<path d="M457.983 91.5H430.017C429.455 91.5 429 92.051 429 92.7308V94.2692C429 94.949 429.455 95.5 430.017 95.5H457.983C458.545 95.5 459 94.949 459 94.2692V92.7308C459 92.051 458.545 91.5 457.983 91.5Z" fill="black" fill-opacity="0.15"/>
<path d="M439.401 78H438.588V72.6387L436.914 73.2759V72.5332L439.335 71.6016H439.401V78ZM446.187 75.5522C446.187 75.9595 446.14 76.3213 446.046 76.6377C445.952 76.9512 445.817 77.2148 445.642 77.4287C445.466 77.6455 445.25 77.8096 444.996 77.9209C444.741 78.0322 444.449 78.0879 444.121 78.0879C443.796 78.0879 443.504 78.0337 443.247 77.9253C442.989 77.814 442.771 77.6484 442.592 77.4287C442.413 77.2148 442.277 76.9512 442.183 76.6377C442.089 76.3213 442.042 75.9595 442.042 75.5522V74.0537C442.042 73.6465 442.089 73.2861 442.183 72.9727C442.277 72.6562 442.413 72.3896 442.592 72.1729C442.768 71.9561 442.983 71.792 443.238 71.6807C443.496 71.5664 443.787 71.5093 444.112 71.5093C444.44 71.5093 444.732 71.5664 444.987 71.6807C445.245 71.792 445.463 71.9561 445.642 72.1729C445.817 72.3896 445.952 72.6562 446.046 72.9727C446.14 73.2861 446.187 73.6465 446.187 74.0537V75.5522ZM442.86 75.3896L445.352 73.478C445.328 73.2671 445.286 73.0811 445.224 72.9199C445.166 72.7559 445.085 72.6196 444.982 72.5112C444.883 72.3999 444.76 72.3164 444.613 72.2607C444.47 72.2051 444.303 72.1772 444.112 72.1772C443.919 72.1772 443.748 72.208 443.598 72.2695C443.452 72.3281 443.327 72.4146 443.225 72.5288C443.102 72.6724 443.009 72.8584 442.948 73.0869C442.889 73.3125 442.86 73.5747 442.86 73.8735V74.9458C442.86 75.019 442.86 75.0923 442.86 75.1655C442.86 75.2388 442.86 75.3135 442.86 75.3896ZM445.369 75.7236V74.8184C445.369 74.7744 445.369 74.6909 445.369 74.5679C445.369 74.4419 445.369 74.3379 445.369 74.2559L442.882 76.1587C442.908 76.3726 442.955 76.5615 443.022 76.7256C443.09 76.8867 443.178 77.02 443.286 77.1255C443.386 77.2251 443.506 77.3013 443.646 77.354C443.787 77.4038 443.945 77.4287 444.121 77.4287C444.306 77.4287 444.47 77.4009 444.613 77.3452C444.757 77.2896 444.878 77.209 444.978 77.1035C445.113 76.96 445.211 76.7725 445.272 76.541C445.337 76.3096 445.369 76.0371 445.369 75.7236ZM451.592 75.5522C451.592 75.9595 451.545 76.3213 451.451 76.6377C451.357 76.9512 451.223 77.2148 451.047 77.4287C450.871 77.6455 450.656 77.8096 450.401 77.9209C450.146 78.0322 449.854 78.0879 449.526 78.0879C449.201 78.0879 448.91 78.0337 448.652 77.9253C448.394 77.814 448.176 77.6484 447.997 77.4287C447.818 77.2148 447.682 76.9512 447.588 76.6377C447.495 76.3213 447.448 75.9595 447.448 75.5522V74.0537C447.448 73.6465 447.495 73.2861 447.588 72.9727C447.682 72.6562 447.818 72.3896 447.997 72.1729C448.173 71.9561 448.388 71.792 448.643 71.6807C448.901 71.5664 449.192 71.5093 449.518 71.5093C449.846 71.5093 450.137 71.5664 450.392 71.6807C450.65 71.792 450.868 71.9561 451.047 72.1729C451.223 72.3896 451.357 72.6562 451.451 72.9727C451.545 73.2861 451.592 73.6465 451.592 74.0537V75.5522ZM448.265 75.3896L450.757 73.478C450.733 73.2671 450.691 73.0811 450.629 72.9199C450.571 72.7559 450.49 72.6196 450.388 72.5112C450.288 72.3999 450.165 72.3164 450.019 72.2607C449.875 72.2051 449.708 72.1772 449.518 72.1772C449.324 72.1772 449.153 72.208 449.003 72.2695C448.857 72.3281 448.732 72.4146 448.63 72.5288C448.507 72.6724 448.415 72.8584 448.353 73.0869C448.294 73.3125 448.265 73.5747 448.265 73.8735V74.9458C448.265 75.019 448.265 75.0923 448.265 75.1655C448.265 75.2388 448.265 75.3135 448.265 75.3896ZM450.774 75.7236V74.8184C450.774 74.7744 450.774 74.6909 450.774 74.5679C450.774 74.4419 450.774 74.3379 450.774 74.2559L448.287 76.1587C448.313 76.3726 448.36 76.5615 448.428 76.7256C448.495 76.8867 448.583 77.02 448.691 77.1255C448.791 77.2251 448.911 77.3013 449.052 77.354C449.192 77.4038 449.351 77.4287 449.526 77.4287C449.711 77.4287 449.875 77.4009 450.019 77.3452C450.162 77.2896 450.284 77.209 450.383 77.1035C450.518 76.96 450.616 76.7725 450.678 76.541C450.742 76.3096 450.774 76.0371 450.774 75.7236Z" fill="#2AD986"/>
<path opacity="0.1" d="M139 306H575" stroke="white"/>
<path opacity="0.1" d="M139 343H575" stroke="white"/>
<path opacity="0.1" d="M139 380H575" stroke="white"/>
<path d="M532.881 149H392.119C389.292 149 387 151.415 387 154.393V263.607C387 266.585 389.292 269 392.119 269H532.881C535.708 269 538 266.585 538 263.607V154.393C538 151.415 535.708 149 532.881 149Z" fill="black" fill-opacity="0.15"/>
<circle cx="381" cy="353" r="3" fill="#2AD986"/>
<path d="M473.119 349H393.881C392.29 349 391 350.102 391 351.462V354.538C391 355.898 392.29 357 393.881 357H473.119C474.71 357 476 355.898 476 354.538V351.462C476 350.102 474.71 349 473.119 349Z" fill="black" fill-opacity="0.15"/>
<circle cx="381" cy="316" r="3" fill="#2AD986"/>
<path d="M473.119 312H393.881C392.29 312 391 313.102 391 314.462V317.538C391 318.898 392.29 320 393.881 320H473.119C474.71 320 476 318.898 476 317.538V314.462C476 313.102 474.71 312 473.119 312Z" fill="black" fill-opacity="0.15"/>
<circle cx="152" cy="391" r="3" fill="#2AD986"/>
<path d="M198.712 387H163.288C162.577 387 162 388.102 162 389.462V392.538C162 393.898 162.577 395 163.288 395H198.712C199.423 395 200 393.898 200 392.538V389.462C200 388.102 199.423 387 198.712 387Z" fill="black" fill-opacity="0.15"/>
<circle cx="152" cy="353" r="3" fill="#2AD986"/>
<path d="M226.729 349H164.271C163.017 349 162 350.102 162 351.462V354.538C162 355.898 163.017 357 164.271 357H226.729C227.983 357 229 355.898 229 354.538V351.462C229 350.102 227.983 349 226.729 349Z" fill="black" fill-opacity="0.15"/>
<circle cx="152" cy="316" r="3" fill="#2AD986"/>
<path d="M244.119 312H164.881C163.29 312 162 313.102 162 314.462V317.538C162 318.898 163.29 320 164.881 320H244.119C245.71 320 247 318.898 247 317.538V314.462C247 313.102 245.71 312 244.119 312Z" fill="black" fill-opacity="0.15"/>
</g>
</g>
<defs>
<clipPath id="clip0_52_9">
<rect width="702" height="426" fill="white"/>
</clipPath>
</defs>
</svg>
