<svg width="184" height="121" viewBox="0 0 184 121" fill="none" xmlns="http://www.w3.org/2000/svg">
<path d="M70.2064 89.7268H13.4142C12.811 89.7268 12.318 89.2378 12.3131 88.6347C12.3081 88.0315 12.7931 87.5426 13.3963 87.5426H70.1884C70.7916 87.5426 71.2846 88.0315 71.2896 88.6347C71.2945 89.2378 70.8095 89.7268 70.2064 89.7268Z" fill="white" fill-opacity="0.2"/>
<path d="M42.8487 83.1741H13.3604C12.7572 83.1741 12.2642 82.6851 12.2593 82.0819C12.2543 81.4788 12.7393 80.9898 13.3425 80.9898H42.8308C43.434 80.9898 43.9269 81.4788 43.9319 82.0819C43.9368 82.6851 43.4519 83.1741 42.8487 83.1741Z" fill="white" fill-opacity="0.2"/>
<path d="M53.7166 76.6213H13.3067C12.7035 76.6213 12.2105 76.1324 12.2056 75.5292C12.2006 74.9261 12.6856 74.4371 13.2888 74.4371H53.6987C54.3018 74.4371 54.7948 74.9261 54.7998 75.5292C54.8047 76.1324 54.3198 76.6213 53.7166 76.6213Z" fill="white" fill-opacity="0.2"/>
<path d="M55.1761 99.385H14.2201C13.0138 99.385 12.0278 100.363 12.0179 101.569C12.008 102.776 12.9779 103.753 14.1843 103.753H55.1403C56.3466 103.753 57.3326 102.776 57.3425 101.569C57.3524 100.363 56.3825 99.385 55.1761 99.385Z" fill="white" fill-opacity="0.4"/>
<path fill-rule="evenodd" clip-rule="evenodd" d="M160.611 34.0915C167.235 34.5255 172.915 29.5096 173.298 22.8882C173.681 16.2668 168.622 10.5473 161.998 10.1133C155.374 9.67931 149.693 14.6952 149.31 21.3166C148.927 27.938 153.986 33.6575 160.611 34.0915Z" fill="#2F50FF"/>
<path d="M163.849 24.2158C163.928 23.9428 164.901 20.636 164.901 20.636C165.369 19.279 166.277 18.0078 168 18.0078L166.778 21.2561L165.557 24.5043C165.052 25.8068 164.115 27 162.371 27C162.371 27 161.629 21.4393 161.622 21.3146C161.578 21.4471 160.533 24.3718 160.533 24.3718C160.043 25.721 159.106 26.9922 157.369 27L156 18.0078C157.132 18.0078 158.53 19.0139 158.631 20.6672C158.631 20.6672 158.804 23.9662 158.811 24.2236C158.912 23.9428 160.094 20.6282 160.094 20.6282C160.562 19.279 161.449 18 163.106 18C163.106 18 163.82 23.935 163.849 24.2158Z" fill="white"/>
<path d="M14.3789 33.3338C15.495 33.3338 16.3148 32.696 16.4683 31.7358L16.4685 31.715H15.6989L15.6919 31.7289C15.5451 32.2939 15.0466 32.6474 14.3845 32.6474C13.4833 32.6474 12.9278 31.9022 12.9375 30.7168L12.9376 30.7098C12.9474 29.5209 13.515 28.7757 14.4128 28.7757C15.0714 28.7757 15.5707 29.1743 15.7113 29.7878L15.7112 29.7982H16.4807L16.4843 29.7809C16.3608 28.7861 15.5207 28.0894 14.4184 28.0894C13.0284 28.0894 12.1571 29.0946 12.1438 30.7098V30.7168C12.1305 32.3286 12.9889 33.3338 14.3789 33.3338ZM18.9721 33.2852C19.9358 33.2852 20.4603 32.7306 20.5891 32.235L20.5963 32.2038L19.8718 32.2072L19.8577 32.235C19.766 32.4291 19.4764 32.6682 18.9945 32.6682C18.3741 32.6682 17.9823 32.2488 17.9744 31.5279H20.6435L20.6456 31.2644C20.6549 30.1344 20.0164 29.3754 18.9661 29.3754C17.9158 29.3754 17.2299 30.1622 17.2203 31.3372V31.3407C17.2105 32.5331 17.8699 33.2852 18.9721 33.2852ZM18.9645 29.9923C19.474 29.9923 19.8492 30.3182 19.9026 30.9906H17.9892C18.0604 30.3424 18.4515 29.9923 18.9645 29.9923ZM21.524 33.2124H22.2761L22.2946 30.9629C22.2991 30.4187 22.6937 30.0651 23.2691 30.0651C23.4112 30.0651 23.5393 30.0825 23.6743 30.1102L23.6799 29.4169C23.6038 29.3996 23.4722 29.3823 23.3509 29.3823C22.8483 29.3823 22.4963 29.618 22.3578 30.0166H22.3024L22.307 29.4481H21.5548L21.524 33.2124ZM25.9814 33.2367C26.127 33.2367 26.2658 33.2194 26.3873 33.1986L26.3922 32.5989C26.2882 32.6093 26.2223 32.6128 26.1079 32.6128C25.737 32.6128 25.5858 32.4464 25.5892 32.0409L25.6056 30.0409H26.4132L26.4181 29.4481H25.6104L25.6182 28.4984H24.8522L24.8444 29.4481H24.2551L24.2502 30.0409H24.8395L24.8216 32.2211C24.8157 32.9455 25.153 33.2367 25.9814 33.2367ZM27.6923 28.7757C27.9488 28.7757 28.1654 28.5643 28.1675 28.3078C28.1697 28.0478 27.9565 27.8364 27.7 27.8364C27.44 27.8364 27.2268 28.0478 27.2247 28.3078C27.2226 28.5643 27.4323 28.7757 27.6923 28.7757ZM27.2781 33.2124H28.0268L28.0577 29.4481H27.3089L27.2781 33.2124ZM29.389 33.2124H30.1378L30.1638 30.0409H30.9922L30.9971 29.4481H30.1617L30.1647 29.0877C30.1678 28.7064 30.3324 28.5053 30.7483 28.5053C30.8662 28.5053 30.9666 28.5123 31.0359 28.5227L31.0404 27.9715C30.9123 27.9507 30.7669 27.9369 30.597 27.9369C29.8136 27.9369 29.4293 28.3043 29.4232 29.053L29.4199 29.4481H28.7994L28.7946 30.0409H29.4151L29.389 33.2124ZM32.2401 28.7757C32.4966 28.7757 32.7132 28.5643 32.7154 28.3078C32.7175 28.0478 32.5043 27.8364 32.2478 27.8364C31.9878 27.8364 31.7746 28.0478 31.7725 28.3078C31.7704 28.5643 31.9801 28.7757 32.2401 28.7757ZM31.8259 33.2124H32.5746L32.6055 29.4481H31.8567L31.8259 33.2124ZM35.2535 33.2852C36.1859 33.2852 36.7273 32.7826 36.8685 32.0513L36.8757 32.0201H36.1547L36.1476 32.0374C36.023 32.4429 35.73 32.6578 35.2586 32.6578C34.6381 32.6578 34.2575 32.1518 34.2644 31.3199V31.313C34.2711 30.5019 34.653 30.0027 35.2804 30.0027C35.7795 30.0027 36.0823 30.28 36.1625 30.6509L36.1658 30.6613L36.8869 30.6578L36.887 30.6405C36.789 29.9091 36.2284 29.3754 35.2821 29.3754C34.1832 29.3754 33.5081 30.1206 33.4984 31.313L33.4983 31.3199C33.4883 32.5365 34.1546 33.2852 35.2535 33.2852ZM38.7511 33.2748C39.2502 33.2748 39.6471 33.0599 39.8721 32.6786H39.931L39.9267 33.2124H40.6719L40.6931 30.637C40.6995 29.8468 40.1696 29.3754 39.2233 29.3754C38.3671 29.3754 37.771 29.7878 37.6758 30.4048L37.6721 30.4291H38.3966L38.4002 30.4152C38.4925 30.1483 38.7676 29.9958 39.1835 29.9958C39.6931 29.9958 39.9512 30.2246 39.9478 30.637L39.9451 30.9698L38.9255 31.0287C38.0272 31.0842 37.518 31.4759 37.5124 32.1483V32.1552C37.5068 32.8381 38.0335 33.2748 38.7511 33.2748ZM38.2614 32.1241V32.1171C38.2642 31.7774 38.5014 31.5903 39.0217 31.5591L39.9407 31.5001L39.9381 31.8225C39.9341 32.3078 39.5186 32.6752 38.957 32.6752C38.5515 32.6752 38.2585 32.4707 38.2614 32.1241ZM43.1536 33.2367C43.2992 33.2367 43.438 33.2194 43.5595 33.1986L43.5644 32.5989C43.4603 32.6093 43.3944 32.6128 43.2801 32.6128C42.9092 32.6128 42.758 32.4464 42.7613 32.0409L42.7777 30.0409H43.5854L43.5903 29.4481H42.7826L42.7904 28.4984H42.0243L42.0165 29.4481H41.4273L41.4224 30.0409H42.0117L41.9938 32.2211C41.9879 32.9455 42.3252 33.2367 43.1536 33.2367ZM45.9748 33.2852C46.9384 33.2852 47.4629 32.7306 47.5918 32.235L47.599 32.2038L46.8745 32.2072L46.8604 32.235C46.7687 32.4291 46.479 32.6682 45.9972 32.6682C45.3767 32.6682 44.985 32.2488 44.9771 31.5279H47.6461L47.6483 31.2644C47.6576 30.1344 47.019 29.3754 45.9687 29.3754C44.9185 29.3754 44.2326 30.1622 44.223 31.3372L44.2229 31.3407C44.2131 32.5331 44.8725 33.2852 45.9748 33.2852ZM45.9672 29.9923C46.4767 29.9923 46.8519 30.3182 46.9053 30.9906H44.9919C45.063 30.3424 45.4541 29.9923 45.9672 29.9923Z" fill="white" fill-opacity="0.6"/>
<path d="M14.9648 19.6367L16.5171 14.1797H17.269L16.834 16.3013L15.1636 22H14.417L14.9648 19.6367ZM13.3589 14.1797L14.5942 19.5293L14.9648 22H14.2236L12.3276 14.1797H13.3589ZM19.2778 19.5239L20.4863 14.1797H21.5229L19.6323 22H18.8911L19.2778 19.5239ZM17.3818 14.1797L18.8911 19.6367L19.439 22H18.6924L17.0811 16.3013L16.6406 14.1797H17.3818ZM24.7617 22.1074C24.3571 22.1074 23.9901 22.0394 23.6606 21.9033C23.3348 21.7637 23.0537 21.5685 22.8174 21.3179C22.5846 21.0672 22.4056 20.77 22.2803 20.4263C22.1549 20.0825 22.0923 19.7065 22.0923 19.2983V19.0728C22.0923 18.6001 22.1621 18.1794 22.3018 17.8105C22.4414 17.4382 22.6312 17.123 22.8711 16.8652C23.111 16.6074 23.3831 16.4123 23.6875 16.2798C23.9919 16.1473 24.307 16.0811 24.6328 16.0811C25.0482 16.0811 25.4062 16.1527 25.707 16.2959C26.0114 16.4391 26.2603 16.6396 26.4536 16.8975C26.647 17.1517 26.7902 17.4525 26.8833 17.7998C26.9764 18.1436 27.0229 18.5195 27.0229 18.9277V19.3735H22.6831V18.5625H26.0293V18.4873C26.015 18.2295 25.9613 17.9788 25.8682 17.7354C25.7786 17.4919 25.6354 17.2913 25.4385 17.1338C25.2415 16.9762 24.973 16.8975 24.6328 16.8975C24.4072 16.8975 24.1995 16.9458 24.0098 17.0425C23.82 17.1356 23.6571 17.2752 23.521 17.4614C23.3849 17.6476 23.2793 17.875 23.2041 18.1436C23.1289 18.4121 23.0913 18.7218 23.0913 19.0728V19.2983C23.0913 19.5741 23.1289 19.8337 23.2041 20.0771C23.2829 20.3171 23.3957 20.5283 23.5425 20.7109C23.6929 20.8936 23.8737 21.0368 24.085 21.1406C24.2998 21.2445 24.5433 21.2964 24.8154 21.2964C25.1663 21.2964 25.4635 21.2248 25.707 21.0815C25.9505 20.9383 26.1636 20.7467 26.3462 20.5068L26.9478 20.9849C26.8224 21.1746 26.6631 21.3555 26.4697 21.5273C26.2764 21.6992 26.0382 21.8389 25.7554 21.9463C25.4761 22.0537 25.1449 22.1074 24.7617 22.1074ZM28.1777 13.75H29.1768V20.8721L29.0908 22H28.1777V13.75ZM33.103 19.0459V19.1587C33.103 19.5812 33.0529 19.9733 32.9526 20.335C32.8524 20.693 32.7056 21.0046 32.5122 21.2695C32.3188 21.5345 32.0825 21.7404 31.8032 21.8872C31.5239 22.034 31.2035 22.1074 30.8418 22.1074C30.473 22.1074 30.1489 22.0448 29.8696 21.9194C29.5939 21.7905 29.3612 21.6061 29.1714 21.3662C28.9816 21.1263 28.8294 20.8363 28.7148 20.4961C28.6038 20.1559 28.5269 19.7728 28.4839 19.3467V18.8525C28.5269 18.4229 28.6038 18.0379 28.7148 17.6978C28.8294 17.3576 28.9816 17.0675 29.1714 16.8276C29.3612 16.5841 29.5939 16.3997 29.8696 16.2744C30.1453 16.1455 30.4658 16.0811 30.8311 16.0811C31.1963 16.0811 31.5203 16.1527 31.8032 16.2959C32.0861 16.4355 32.3224 16.6361 32.5122 16.8975C32.7056 17.1589 32.8524 17.4722 32.9526 17.8374C33.0529 18.1991 33.103 18.6019 33.103 19.0459ZM32.104 19.1587V19.0459C32.104 18.7559 32.0771 18.4837 32.0234 18.2295C31.9697 17.9717 31.8838 17.7461 31.7656 17.5527C31.6475 17.3558 31.4917 17.2018 31.2983 17.0908C31.105 16.9762 30.8669 16.9189 30.584 16.9189C30.3333 16.9189 30.1149 16.9619 29.9287 17.0479C29.7461 17.1338 29.5903 17.2502 29.4614 17.397C29.3325 17.5402 29.2269 17.7049 29.1445 17.8911C29.0658 18.0737 29.0067 18.2635 28.9673 18.4604V19.7549C29.0246 20.0055 29.1177 20.2472 29.2466 20.48C29.3791 20.7091 29.5545 20.8971 29.7729 21.0439C29.995 21.1908 30.2689 21.2642 30.5947 21.2642C30.8633 21.2642 31.0924 21.2104 31.2822 21.103C31.4756 20.992 31.6313 20.8398 31.7495 20.6465C31.8713 20.4531 31.9608 20.2293 32.0181 19.9751C32.0754 19.7209 32.104 19.4487 32.104 19.1587ZM35.8423 22H34.8486V15.5762C34.8486 15.1572 34.9256 14.8045 35.0796 14.5181C35.2371 14.228 35.4627 14.0096 35.7563 13.8628C36.0535 13.7124 36.4134 13.6372 36.8359 13.6372C36.9935 13.6372 37.1904 13.6533 37.4268 13.6855C37.6667 13.7178 37.9209 13.759 38.1895 13.8091C38.4616 13.8592 38.7266 13.9111 38.9844 13.9648L38.5225 14.6846C38.1823 14.6201 37.8761 14.5718 37.604 14.5396C37.3319 14.5037 37.1009 14.4858 36.9111 14.4858C36.6784 14.4858 36.4814 14.5288 36.3203 14.6147C36.1628 14.6971 36.0428 14.8188 35.9604 14.98C35.8817 15.1411 35.8423 15.3398 35.8423 15.5762V22ZM37.9907 22V13.9648H38.9844V22H37.9907ZM37.0776 16.1885V16.9512H33.9302V16.1885H37.0776ZM40.3486 19.1587V19.0352C40.3486 18.6162 40.4095 18.2277 40.5312 17.8696C40.653 17.508 40.8285 17.1947 41.0576 16.9297C41.2868 16.6611 41.5643 16.4535 41.8901 16.3066C42.216 16.1562 42.5812 16.0811 42.9858 16.0811C43.394 16.0811 43.7611 16.1562 44.0869 16.3066C44.4163 16.4535 44.6956 16.6611 44.9248 16.9297C45.1576 17.1947 45.3348 17.508 45.4565 17.8696C45.5783 18.2277 45.6392 18.6162 45.6392 19.0352V19.1587C45.6392 19.5776 45.5783 19.9661 45.4565 20.3242C45.3348 20.6823 45.1576 20.9956 44.9248 21.2642C44.6956 21.5291 44.4181 21.7368 44.0923 21.8872C43.77 22.034 43.4048 22.1074 42.9966 22.1074C42.5884 22.1074 42.2214 22.034 41.8955 21.8872C41.5697 21.7368 41.2904 21.5291 41.0576 21.2642C40.8285 20.9956 40.653 20.6823 40.5312 20.3242C40.4095 19.9661 40.3486 19.5776 40.3486 19.1587ZM41.3423 19.0352V19.1587C41.3423 19.4487 41.3763 19.7227 41.4443 19.9805C41.5124 20.2347 41.6144 20.4603 41.7505 20.6572C41.8901 20.8542 42.0638 21.0099 42.2715 21.1245C42.4792 21.2355 42.7209 21.291 42.9966 21.291C43.2687 21.291 43.5068 21.2355 43.7109 21.1245C43.9186 21.0099 44.0905 20.8542 44.2266 20.6572C44.3626 20.4603 44.4647 20.2347 44.5327 19.9805C44.6043 19.7227 44.6401 19.4487 44.6401 19.1587V19.0352C44.6401 18.7487 44.6043 18.4784 44.5327 18.2241C44.4647 17.9663 44.3608 17.7389 44.2212 17.542C44.0851 17.3415 43.9132 17.1839 43.7056 17.0693C43.5015 16.9548 43.2616 16.8975 42.9858 16.8975C42.7137 16.8975 42.4738 16.9548 42.2661 17.0693C42.062 17.1839 41.8901 17.3415 41.7505 17.542C41.6144 17.7389 41.5124 17.9663 41.4443 18.2241C41.3763 18.4784 41.3423 18.7487 41.3423 19.0352ZM48.3569 20.9688L49.8501 16.1885H50.5054L50.3765 17.1392L48.8564 22H48.2173L48.3569 20.9688ZM47.3525 16.1885L48.6255 21.0225L48.7168 22H48.0454L46.3589 16.1885H47.3525ZM51.9341 20.9849L53.1479 16.1885H54.1362L52.4497 22H51.7837L51.9341 20.9849ZM50.6504 16.1885L52.1113 20.8882L52.2778 22H51.644L50.0811 17.1284L49.9521 16.1885H50.6504Z" fill="white"/>
</svg>
